#!OML:ASF I:\golf\golf\golf 2\Subject 1\2002-09-07\Subject1.ASF
:FULLY-SPECIFIED
:DEGREES
294
root -5.98021 17.9764 3.5192 2.90599 54.0114 -15.1625
lowerback 8.04327 -8.25224 -11.8991
upperback 2.23356 -11.8175 -1.03707
thorax 0.0700673 -5.94083 6.11438
lowerneck -6.96741 18.9509 3.06762
upperneck 11.9598 27.5751 -14.1215
head 7.24971 12.5054 -2.1505
rclavicle -3.49861e-014 5.40694e-014
rhumerus 24.2772 -21.4866 -63.9606
rradius 101.427
rwrist -12.7125
rhand -62.7926 47.3671
rfingers 7.12502
rthumb -34.8062 20.766
lclavicle -3.49861e-014 5.40694e-014
lhumerus 106.135 -46.4024 45.8651
lradius 32.6227
lwrist -8.24441
lhand -21.9103 2.0878
lfingers 7.12502
lthumb -175.505 -147.98
rfemur -34.2324 10.6139 23.1905
rtibia 28.2355
rfoot -5.43048 15.8656
rtoes 13.5905
lfemur -20.3631 25.6383 -0.564857
ltibia 36.2539
lfoot -5.00052 10.9577
ltoes -25.1885
295
root -5.98656 17.9833 3.46485 2.89887 55.1457 -15.3843
lowerback 8.12246 -8.28876 -11.7405
upperback 2.30611 -11.8584 -0.748689
thorax 0.142099 -5.97454 6.33263
lowerneck -7.25766 18.7336 2.90944
upperneck 12.3863 27.337 -13.9027
head 7.36236 12.3595 -2.06262
rclavicle -6.83819e-014 3.49861e-014
rhumerus 23.9191 -21.1378 -64.6524
rradius 101.228
rwrist -13.2923
rhand -62.6232 46.3413
rfingers 7.12502
rthumb -34.6454 19.7031
lclavicle -6.83819e-014 3.49861e-014
lhumerus 105.32 -46.8773 46.3476
lradius 32.2046
lwrist -8.18092
lhand -21.417 2.05525
lfingers 7.12502
lthumb -175.028 -148.023
rfemur -34.5793 10.2353 22.8744
rtibia 28.3124
rfoot -5.67765 14.9162
rtoes 11.6928
lfemur -21.3152 25.8481 -1.20985
ltibia 36.0817
lfoot -5.17755 10.6671
ltoes -25.8039
296
root -5.99295 17.982 3.40465 2.78629 56.3772 -15.6507
lowerback 8.24806 -8.28777 -11.4939
upperback 2.39346 -11.8476 -0.456939
thorax 0.177173 -5.98037 6.51713
lowerneck -7.4924 18.4543 2.76244
upperneck 12.8166 27.014 -13.6926
head 7.46392 12.1774 -1.99545
rclavicle 6.20208e-014 -2.22639e-014
rhumerus 23.4995 -20.9071 -65.1574
rradius 100.959
rwrist -13.9322
rhand -62.4348 45.7359
rfingers 7.12502
rthumb -34.4665 19.0569
lclavicle 6.20208e-014 -2.22639e-014
lhumerus 104.427 -47.5921 47.1722
lradius 31.5849
lwrist -8.35614
lhand -20.7605 1.93754
lfingers 7.12502
lthumb -174.394 -148.157
rfemur -34.8522 9.68446 22.6053
rtibia 28.3887
rfoot -5.93351 14.0288
rtoes 9.65719
lfemur -22.2411 25.6949 -1.76705
ltibia 35.9247
lfoot -5.5175 10.3879
ltoes -24.9433
297
root -5.99999 17.9752 3.34277 2.4388 57.6232 -16.1958
lowerback 8.24816 -8.19472 -11.1427
upperback 2.58894 -11.6823 -0.0956298
thorax 0.359698 -5.923 6.68656
lowerneck -7.85322 18.0754 2.64362
upperneck 13.1184 26.561 -13.6504
head 7.56442 11.9258 -1.98735
rclavicle -5.56597e-015 -6.36111e-015
rhumerus 23.1142 -20.941 -65.4971
rradius 100.615
rwrist -14.464
rhand -62.3097 44.8487
rfingers 7.12502
rthumb -34.3478 18.1429
lclavicle -5.56597e-015 -6.36111e-015
lhumerus 103.744 -48.3812 47.8961
lradius 31.1895
lwrist -8.52801
lhand -20.0956 2.36497
lfingers 7.12502
lthumb -173.753 -147.747
rfemur -35.1445 9.19572 22.454
rtibia 28.4903
rfoot -6.14743 13.0865
rtoes 8.17614
lfemur -23.1376 25.5333 -2.15597
ltibia 35.7602
lfoot -5.86908 9.96491
ltoes -23.133
298
root -6.00715 17.9742 3.28134 2.13128 58.8951 -16.7664
lowerback 8.20107 -8.16773 -10.8166
upperback 2.74295 -11.6054 0.274271
thorax 0.547734 -5.90803 6.87324
lowerneck -8.07904 17.7378 2.65245
upperneck 13.28 26.1508 -13.754
head 7.63854 11.7058 -2.04583
rclavicle -3.97569e-014 6.36111e-015
rhumerus 22.7604 -20.7552 -66.0094
rradius 100.239
rwrist -14.9255
rhand -62.3808 43.3953
rfingers 7.12502
rthumb -34.4154 16.7047
lclavicle -3.97569e-014 6.36111e-015
lhumerus 102.93 -48.9641 48.5271
lradius 30.8211
lwrist -8.60526
lhand -19.4957 2.5204
lfingers 7.12502
lthumb -173.173 -147.61
rfemur -35.5321 8.89578 22.1969
rtibia 28.641
rfoot -6.38586 11.9726
rtoes 6.80309
lfemur -24.1143 25.482 -2.6601
ltibia 35.605
lfoot -6.20281 9.54033
ltoes -21.6645
299
root -6.01317 17.9764 3.21664 2.0439 60.2513 -17.0446
lowerback 8.2432 -8.17156 -10.5289
upperback 2.86322 -11.5836 0.448773
thorax 0.627252 -5.90692 6.89847
lowerneck -8.21182 17.4342 3.21477
upperneck 13.5121 25.7619 -13.9925
head 7.81135 11.507 -2.20566
rclavicle 9.22361e-014 6.04305e-014
rhumerus 22.1529 -20.5203 -66.7663
rradius 99.9907
rwrist -15.4768
rhand -62.6807 41.8192
rfingers 7.12502
rthumb -34.7 15.1936
lclavicle 9.22361e-014 6.04305e-014
lhumerus 102.348 -49.4849 48.5517
lradius 30.3966
lwrist -8.35634
lhand -18.8768 2.27743
lfingers 7.12502
lthumb -172.576 -147.873
rfemur -35.879 8.45144 21.7697
rtibia 28.8232
rfoot -6.66098 10.852
rtoes 5.16194
lfemur -25.0921 25.3345 -3.38932
ltibia 35.4864
lfoot -6.67954 9.10576
ltoes -19.5562
